<?xml version="1.0" encoding="UTF-8" standalone="no"?>
<svg
   width="1024"
   height="1024"
   viewBox="0 0 1024 1024"
   version="1.1"
   id="svg14"
   xmlns="http://www.w3.org/2000/svg"
   xmlns:svg="http://www.w3.org/2000/svg">
  <defs
     id="defs18" />
  <title
     id="title2">Agmentic exact app icon on lime background</title>
  <rect
     width="1024"
     height="1024"
     rx="180"
     fill="#D1F052"
     id="rect4" />
  <g
     fill="#050505"
     transform="matrix(2,0,0,2,296,320)"
     id="g12">
    <g
       aria-label="A"
       transform="scale(0.8,1)"
       id="text6"
       style="font-weight:600;font-size:280px;font-family:'URW Gothic'">
      <path
         d="M 1.96,210 H 44.24 L 67.2,156.52 h 73.64 L 162.96,210 h 42.28 L 118.44,3.08 H 88.2 Z m 79.24,-90.16 22.12,-62.72 22.12,62.72 z"
         id="path20" />
    </g>
    <path
       d="m 184,1 h 32 l -4,151 h -24 z"
       id="path8" />
    <path
       id="circle10"
       d="m 224,186 a 24,24 0 0 1 -24,24 24,24 0 0 1 -24,-24 24,24 0 0 1 24,-24 24,24 0 0 1 24,24 z" />
  </g>
</svg>
